<svg id="Layer_1" data-name="Layer 1" xmlns="http://www.w3.org/2000/svg" viewBox="0 0 92 34"><defs><style>.cls-1{fill:#70af44;}.cls-2{fill:#5e5f5e;}.cls-3{fill:#fff;}</style></defs><title>shipt-horizontal</title><circle class="cls-1" cx="18.05" cy="17.05" r="16.05"/><path class="cls-2" d="M77.17,12.11H71.31v9.33h2V18H75.5l2.13-.07a1.68,1.68,0,0,0,1.21-1.6V13.79A1.68,1.68,0,0,0,77.17,12.11ZM76.83,16H73.32V14.12h3.51Z"/><path class="cls-2" d="M47.25,12.11H43.07a1.68,1.68,0,0,0-1.67,1.68v2.29a1.67,1.67,0,0,0,1.67,1.68h3.84V19.4H41.4v.33a1.72,1.72,0,0,0,1.67,1.71h4.17a1.73,1.73,0,0,0,1.68-1.71v-2.3a1.69,1.69,0,0,0-1.68-1.68H43.41V14.12h5.52v-.33A1.68,1.68,0,0,0,47.25,12.11Z"/><path class="cls-2" d="M67,13.79a1.68,1.68,0,0,0-1.68-1.68H65v9.33h2V13.79Z"/><path class="cls-2" d="M87.88,12.11H82v2h2.57v7.32h2V14.12h3v-.33A1.68,1.68,0,0,0,87.88,12.11Z"/><path class="cls-2" d="M60.64,13.79A1.68,1.68,0,0,0,59,12.11h-.33V16H55.12V12.11h-2v9.33h2V18h3.52v3.44h2V13.79Z"/><path class="cls-3" d="M5.29,15.19a43.42,43.42,0,0,0,7.89,1.62h9.77a43.43,43.43,0,0,0,7.88-1.61v-.46H5.29Z"/><path class="cls-3" d="M18.05,9.64a5.56,5.56,0,0,0-4.41,2.08h8.81A5.56,5.56,0,0,0,18.05,9.64Z"/><polygon class="cls-3" points="15.76 17.81 20.27 17.81 21.28 17.3 14.83 17.3 15.76 17.81"/><polygon class="cls-3" points="18.06 26.63 18.73 19.46 17.38 19.46 18.06 26.63"/><polygon class="cls-3" points="10.13 24.9 13.99 18.82 12.79 18.21 10.13 24.9"/><polygon class="cls-3" points="22.12 18.82 25.98 24.9 23.32 18.21 22.12 18.82"/><path class="cls-3" d="M28.28,13.23a.38.38,0,1,1-.72.15.37.37,0,0,1,.13-.28,43.59,43.59,0,0,0-4.75-.79H13.18a43.6,43.6,0,0,0-4.75.79.37.37,0,0,1,.13.28.38.38,0,1,1-.72-.15q-1.29.31-2.54.69v.3H30.82v-.3Q29.57,13.53,28.28,13.23Zm-18.13.52a.37.37,0,1,1,.38-.37A.37.37,0,0,1,10.15,13.75Zm2,0a.37.37,0,1,1,.38-.37A.37.37,0,0,1,12.13,13.75Zm2,0a.37.37,0,1,1,.38-.37A.37.37,0,0,1,14.1,13.75Zm2,0a.37.37,0,1,1,.38-.37A.37.37,0,0,1,16.08,13.75Zm2,0a.37.37,0,1,1,.38-.37A.38.38,0,0,1,18.05,13.75Zm2,0a.37.37,0,1,1,.37-.37A.38.38,0,0,1,20,13.75Zm2,0a.37.37,0,1,1,.38-.37A.38.38,0,0,1,22,13.75Zm2,0a.37.37,0,1,1,.38-.37A.38.38,0,0,1,24,13.75Zm2,0a.37.37,0,1,1,.37-.37A.38.38,0,0,1,26,13.75Z"/></svg>