<svg xmlns="http://www.w3.org/2000/svg" xmlns:xlink="http://www.w3.org/1999/xlink" viewBox="0 0 1080 422"><defs><style>.a{fill:none;}.b{clip-path:url(#a);}.c{opacity:0.396;}.d{fill:rgba(203,32,38,0.4);}</style><clipPath id="a"><path class="a" d="M0,422V0H1080V422Z"/></clipPath></defs><g class="b"><g class="c" transform="translate(5 6)"><g transform="translate(37)"><path class="d" d="M19,38A19,19,0,0,1,5.565,5.565a19,19,0,1,1,26.87,26.87A18.876,18.876,0,0,1,19,38ZM19,6.333A12.667,12.667,0,1,0,31.667,19,12.681,12.681,0,0,0,19,6.333Z"/><circle class="d" cx="6.333" cy="6.333" r="6.333" transform="translate(12.9 12.667)"/></g><g transform="translate(37 123)"><path class="d" d="M19,38A19,19,0,0,1,5.565,5.565a19,19,0,1,1,26.87,26.87A18.876,18.876,0,0,1,19,38ZM19,6.333A12.667,12.667,0,1,0,31.667,19,12.681,12.681,0,0,0,19,6.333Z"/><circle class="d" cx="6.333" cy="6.333" r="6.333" transform="translate(12.9 12.667)"/></g><g transform="translate(37 246)"><path class="d" d="M19,38A19,19,0,0,1,5.565,5.565a19,19,0,1,1,26.87,26.87A18.876,18.876,0,0,1,19,38ZM19,6.333A12.667,12.667,0,1,0,31.667,19,12.681,12.681,0,0,0,19,6.333Z"/><circle class="d" cx="6.333" cy="6.333" r="6.333" transform="translate(12.9 12.667)"/></g><g transform="translate(37 369)"><path class="d" d="M19,38A19,19,0,0,1,5.565,5.565a19,19,0,1,1,26.87,26.87A18.876,18.876,0,0,1,19,38ZM19,6.333A12.667,12.667,0,1,0,31.667,19,12.681,12.681,0,0,0,19,6.333Z"/><circle class="d" cx="6.333" cy="6.333" r="6.333" transform="translate(12.9 12.667)"/></g><g transform="translate(0 62)"><path class="d" d="M19,38A19,19,0,0,1,5.565,5.565a19,19,0,1,1,26.87,26.87A18.876,18.876,0,0,1,19,38ZM19,6.333A12.667,12.667,0,1,0,31.667,19,12.681,12.681,0,0,0,19,6.333Z"/><circle class="d" cx="6.333" cy="6.333" r="6.333" transform="translate(12.9 12.667)"/></g><g transform="translate(0 185)"><path class="d" d="M19,38A19,19,0,0,1,5.565,5.565a19,19,0,1,1,26.87,26.87A18.876,18.876,0,0,1,19,38ZM19,6.333A12.667,12.667,0,1,0,31.667,19,12.681,12.681,0,0,0,19,6.333Z"/><circle class="d" cx="6.333" cy="6.333" r="6.333" transform="translate(12.9 12.667)"/></g><g transform="translate(0 308)"><path class="d" d="M19,38A19,19,0,0,1,5.565,5.565a19,19,0,1,1,26.87,26.87A18.876,18.876,0,0,1,19,38ZM19,6.333A12.667,12.667,0,1,0,31.667,19,12.681,12.681,0,0,0,19,6.333Z"/><circle class="d" cx="6.333" cy="6.333" r="6.333" transform="translate(12.9 12.667)"/></g><g transform="translate(0 432)"><path class="d" d="M19,38A19,19,0,0,1,5.565,5.565a19,19,0,1,1,26.87,26.87A18.876,18.876,0,0,1,19,38ZM19,6.333A12.667,12.667,0,1,0,31.667,19,12.681,12.681,0,0,0,19,6.333Z"/><circle class="d" cx="6.333" cy="6.333" r="6.333" transform="translate(12.9 12.667)"/></g><g transform="translate(351)"><path class="d" d="M19,38A19,19,0,0,1,5.565,5.565a19,19,0,1,1,26.87,26.87A18.876,18.876,0,0,1,19,38ZM19,6.333A12.667,12.667,0,1,0,31.667,19,12.681,12.681,0,0,0,19,6.333Z"/><circle class="d" cx="6.333" cy="6.333" r="6.333" transform="translate(12.9 12.667)"/></g><g transform="translate(351 123)"><path class="d" d="M19,38A19,19,0,0,1,5.565,5.565a19,19,0,1,1,26.87,26.87A18.876,18.876,0,0,1,19,38ZM19,6.333A12.667,12.667,0,1,0,31.667,19,12.681,12.681,0,0,0,19,6.333Z"/><circle class="d" cx="6.333" cy="6.333" r="6.333" transform="translate(12.9 12.667)"/></g><g transform="translate(351 246)"><path class="d" d="M19,38A19,19,0,0,1,5.565,5.565a19,19,0,1,1,26.87,26.87A18.876,18.876,0,0,1,19,38ZM19,6.333A12.667,12.667,0,1,0,31.667,19,12.681,12.681,0,0,0,19,6.333Z"/><circle class="d" cx="6.333" cy="6.333" r="6.333" transform="translate(12.9 12.667)"/></g><g transform="translate(351 369)"><path class="d" d="M19,38A19,19,0,0,1,5.565,5.565a19,19,0,1,1,26.87,26.87A18.876,18.876,0,0,1,19,38ZM19,6.333A12.667,12.667,0,1,0,31.667,19,12.681,12.681,0,0,0,19,6.333Z"/><circle class="d" cx="6.333" cy="6.333" r="6.333" transform="translate(12.9 12.667)"/></g><g transform="translate(313 62)"><path class="d" d="M19,38A19,19,0,0,1,5.565,5.565a19,19,0,1,1,26.87,26.87A18.876,18.876,0,0,1,19,38ZM19,6.333A12.667,12.667,0,1,0,31.667,19,12.681,12.681,0,0,0,19,6.333Z"/><circle class="d" cx="6.333" cy="6.333" r="6.333" transform="translate(12.9 12.667)"/></g><g transform="translate(313 185)"><path class="d" d="M19,38A19,19,0,0,1,5.565,5.565a19,19,0,1,1,26.87,26.87A18.876,18.876,0,0,1,19,38ZM19,6.333A12.667,12.667,0,1,0,31.667,19,12.681,12.681,0,0,0,19,6.333Z"/><circle class="d" cx="6.333" cy="6.333" r="6.333" transform="translate(12.9 12.667)"/></g><g transform="translate(313 308)"><path class="d" d="M19,38A19,19,0,0,1,5.565,5.565a19,19,0,1,1,26.87,26.87A18.876,18.876,0,0,1,19,38ZM19,6.333A12.667,12.667,0,1,0,31.667,19,12.681,12.681,0,0,0,19,6.333Z"/><circle class="d" cx="6.333" cy="6.333" r="6.333" transform="translate(12.9 12.667)"/></g><g transform="translate(313 432)"><path class="d" d="M19,38A19,19,0,0,1,5.565,5.565a19,19,0,1,1,26.87,26.87A18.876,18.876,0,0,1,19,38ZM19,6.333A12.667,12.667,0,1,0,31.667,19,12.681,12.681,0,0,0,19,6.333Z"/><circle class="d" cx="6.333" cy="6.333" r="6.333" transform="translate(12.9 12.667)"/></g><g transform="translate(820)"><path class="d" d="M19,38A19,19,0,0,1,5.565,5.565a19,19,0,1,1,26.87,26.87A18.876,18.876,0,0,1,19,38ZM19,6.333A12.667,12.667,0,1,0,31.667,19,12.681,12.681,0,0,0,19,6.333Z"/><circle class="d" cx="6.333" cy="6.333" r="6.333" transform="translate(12.9 12.667)"/></g><g transform="translate(820 123)"><path class="d" d="M19,38A19,19,0,0,1,5.565,5.565a19,19,0,1,1,26.87,26.87A18.876,18.876,0,0,1,19,38ZM19,6.333A12.667,12.667,0,1,0,31.667,19,12.681,12.681,0,0,0,19,6.333Z"/><circle class="d" cx="6.333" cy="6.333" r="6.333" transform="translate(12.9 12.667)"/></g><g transform="translate(820 246)"><path class="d" d="M19,38A19,19,0,0,1,5.565,5.565a19,19,0,1,1,26.87,26.87A18.876,18.876,0,0,1,19,38ZM19,6.333A12.667,12.667,0,1,0,31.667,19,12.681,12.681,0,0,0,19,6.333Z"/><circle class="d" cx="6.333" cy="6.333" r="6.333" transform="translate(12.9 12.667)"/></g><g transform="translate(820 369)"><path class="d" d="M19,38A19,19,0,0,1,5.565,5.565a19,19,0,1,1,26.87,26.87A18.876,18.876,0,0,1,19,38ZM19,6.333A12.667,12.667,0,1,0,31.667,19,12.681,12.681,0,0,0,19,6.333Z"/><circle class="d" cx="6.333" cy="6.333" r="6.333" transform="translate(12.9 12.667)"/></g><g transform="translate(782 62)"><path class="d" d="M19,38A19,19,0,0,1,5.565,5.565a19,19,0,1,1,26.87,26.87A18.876,18.876,0,0,1,19,38ZM19,6.333A12.667,12.667,0,1,0,31.667,19,12.681,12.681,0,0,0,19,6.333Z"/><circle class="d" cx="6.333" cy="6.333" r="6.333" transform="translate(12.9 12.667)"/></g><g transform="translate(782 185)"><path class="d" d="M19,38A19,19,0,0,1,5.565,5.565a19,19,0,1,1,26.87,26.87A18.876,18.876,0,0,1,19,38ZM19,6.333A12.667,12.667,0,1,0,31.667,19,12.681,12.681,0,0,0,19,6.333Z"/><circle class="d" cx="6.333" cy="6.333" r="6.333" transform="translate(12.9 12.667)"/></g><g transform="translate(782 308)"><path class="d" d="M19,38A19,19,0,0,1,5.565,5.565a19,19,0,1,1,26.87,26.87A18.876,18.876,0,0,1,19,38ZM19,6.333A12.667,12.667,0,1,0,31.667,19,12.681,12.681,0,0,0,19,6.333Z"/><circle class="d" cx="6.333" cy="6.333" r="6.333" transform="translate(12.9 12.667)"/></g><g transform="translate(782 432)"><path class="d" d="M19,38A19,19,0,0,1,5.565,5.565a19,19,0,1,1,26.87,26.87A18.876,18.876,0,0,1,19,38ZM19,6.333A12.667,12.667,0,1,0,31.667,19,12.681,12.681,0,0,0,19,6.333Z"/><circle class="d" cx="6.333" cy="6.333" r="6.333" transform="translate(12.9 12.667)"/></g><g transform="translate(194)"><path class="d" d="M19,38A19,19,0,0,1,5.565,5.565a19,19,0,1,1,26.87,26.87A18.876,18.876,0,0,1,19,38ZM19,6.333A12.667,12.667,0,1,0,31.667,19,12.681,12.681,0,0,0,19,6.333Z"/><circle class="d" cx="6.333" cy="6.333" r="6.333" transform="translate(12.9 12.667)"/></g><g transform="translate(194 123)"><path class="d" d="M19,38A19,19,0,0,1,5.565,5.565a19,19,0,1,1,26.87,26.87A18.876,18.876,0,0,1,19,38ZM19,6.333A12.667,12.667,0,1,0,31.667,19,12.681,12.681,0,0,0,19,6.333Z"/><circle class="d" cx="6.333" cy="6.333" r="6.333" transform="translate(12.9 12.667)"/></g><g transform="translate(194 246)"><path class="d" d="M19,38A19,19,0,0,1,5.565,5.565a19,19,0,1,1,26.87,26.87A18.876,18.876,0,0,1,19,38ZM19,6.333A12.667,12.667,0,1,0,31.667,19,12.681,12.681,0,0,0,19,6.333Z"/><circle class="d" cx="6.333" cy="6.333" r="6.333" transform="translate(12.9 12.667)"/></g><g transform="translate(194 369)"><path class="d" d="M19,38A19,19,0,0,1,5.565,5.565a19,19,0,1,1,26.87,26.87A18.876,18.876,0,0,1,19,38ZM19,6.333A12.667,12.667,0,1,0,31.667,19,12.681,12.681,0,0,0,19,6.333Z"/><circle class="d" cx="6.333" cy="6.333" r="6.333" transform="translate(12.9 12.667)"/></g><g transform="translate(157 62)"><path class="d" d="M19,38A19,19,0,0,1,5.565,5.565a19,19,0,1,1,26.87,26.87A18.876,18.876,0,0,1,19,38ZM19,6.333A12.667,12.667,0,1,0,31.667,19,12.681,12.681,0,0,0,19,6.333Z"/><circle class="d" cx="6.333" cy="6.333" r="6.333" transform="translate(12.9 12.667)"/></g><g transform="translate(157 185)"><path class="d" d="M19,38A19,19,0,0,1,5.565,5.565a19,19,0,1,1,26.87,26.87A18.876,18.876,0,0,1,19,38ZM19,6.333A12.667,12.667,0,1,0,31.667,19,12.681,12.681,0,0,0,19,6.333Z"/><circle class="d" cx="6.333" cy="6.333" r="6.333" transform="translate(12.9 12.667)"/></g><g transform="translate(157 308)"><path class="d" d="M19,38A19,19,0,0,1,5.565,5.565a19,19,0,1,1,26.87,26.87A18.876,18.876,0,0,1,19,38ZM19,6.333A12.667,12.667,0,1,0,31.667,19,12.681,12.681,0,0,0,19,6.333Z"/><circle class="d" cx="6.333" cy="6.333" r="6.333" transform="translate(12.9 12.667)"/></g><g transform="translate(157 432)"><path class="d" d="M19,38A19,19,0,0,1,5.565,5.565a19,19,0,1,1,26.87,26.87A18.876,18.876,0,0,1,19,38ZM19,6.333A12.667,12.667,0,1,0,31.667,19,12.681,12.681,0,0,0,19,6.333Z"/><circle class="d" cx="6.333" cy="6.333" r="6.333" transform="translate(12.9 12.667)"/></g><g transform="translate(663)"><path class="d" d="M19,38A19,19,0,0,1,5.565,5.565a19,19,0,1,1,26.87,26.87A18.876,18.876,0,0,1,19,38ZM19,6.333A12.667,12.667,0,1,0,31.667,19,12.681,12.681,0,0,0,19,6.333Z"/><circle class="d" cx="6.333" cy="6.333" r="6.333" transform="translate(12.9 12.667)"/></g><g transform="translate(663 123)"><path class="d" d="M19,38A19,19,0,0,1,5.565,5.565a19,19,0,1,1,26.87,26.87A18.876,18.876,0,0,1,19,38ZM19,6.333A12.667,12.667,0,1,0,31.667,19,12.681,12.681,0,0,0,19,6.333Z"/><circle class="d" cx="6.333" cy="6.333" r="6.333" transform="translate(12.9 12.667)"/></g><g transform="translate(663 246)"><path class="d" d="M19,38A19,19,0,0,1,5.565,5.565a19,19,0,1,1,26.87,26.87A18.876,18.876,0,0,1,19,38ZM19,6.333A12.667,12.667,0,1,0,31.667,19,12.681,12.681,0,0,0,19,6.333Z"/><circle class="d" cx="6.333" cy="6.333" r="6.333" transform="translate(12.9 12.667)"/></g><g transform="translate(663 369)"><path class="d" d="M19,38A19,19,0,0,1,5.565,5.565a19,19,0,1,1,26.87,26.87A18.876,18.876,0,0,1,19,38ZM19,6.333A12.667,12.667,0,1,0,31.667,19,12.681,12.681,0,0,0,19,6.333Z"/><circle class="d" cx="6.333" cy="6.333" r="6.333" transform="translate(12.9 12.667)"/></g><g transform="translate(626 62)"><path class="d" d="M19,38A19,19,0,0,1,5.565,5.565a19,19,0,1,1,26.87,26.87A18.876,18.876,0,0,1,19,38ZM19,6.333A12.667,12.667,0,1,0,31.667,19,12.681,12.681,0,0,0,19,6.333Z"/><circle class="d" cx="6.333" cy="6.333" r="6.333" transform="translate(12.9 12.667)"/></g><g transform="translate(626 185)"><path class="d" d="M19,38A19,19,0,0,1,5.565,5.565a19,19,0,1,1,26.87,26.87A18.876,18.876,0,0,1,19,38ZM19,6.333A12.667,12.667,0,1,0,31.667,19,12.681,12.681,0,0,0,19,6.333Z"/><circle class="d" cx="6.333" cy="6.333" r="6.333" transform="translate(12.9 12.667)"/></g><g transform="translate(626 308)"><path class="d" d="M19,38A19,19,0,0,1,5.565,5.565a19,19,0,1,1,26.87,26.87A18.876,18.876,0,0,1,19,38ZM19,6.333A12.667,12.667,0,1,0,31.667,19,12.681,12.681,0,0,0,19,6.333Z"/><circle class="d" cx="6.333" cy="6.333" r="6.333" transform="translate(12.9 12.667)"/></g><g transform="translate(626 432)"><path class="d" d="M19,38A19,19,0,0,1,5.565,5.565a19,19,0,1,1,26.87,26.87A18.876,18.876,0,0,1,19,38ZM19,6.333A12.667,12.667,0,1,0,31.667,19,12.681,12.681,0,0,0,19,6.333Z"/><circle class="d" cx="6.333" cy="6.333" r="6.333" transform="translate(12.9 12.667)"/></g><g transform="translate(508)"><path class="d" d="M19,38A19,19,0,0,1,5.565,5.565a19,19,0,1,1,26.87,26.87A18.876,18.876,0,0,1,19,38ZM19,6.333A12.667,12.667,0,1,0,31.667,19,12.681,12.681,0,0,0,19,6.333Z"/><circle class="d" cx="6.333" cy="6.333" r="6.333" transform="translate(12.9 12.667)"/></g><g transform="translate(508 123)"><path class="d" d="M19,38A19,19,0,0,1,5.565,5.565a19,19,0,1,1,26.87,26.87A18.876,18.876,0,0,1,19,38ZM19,6.333A12.667,12.667,0,1,0,31.667,19,12.681,12.681,0,0,0,19,6.333Z"/><circle class="d" cx="6.333" cy="6.333" r="6.333" transform="translate(12.9 12.667)"/></g><g transform="translate(508 246)"><path class="d" d="M19,38A19,19,0,0,1,5.565,5.565a19,19,0,1,1,26.87,26.87A18.876,18.876,0,0,1,19,38ZM19,6.333A12.667,12.667,0,1,0,31.667,19,12.681,12.681,0,0,0,19,6.333Z"/><circle class="d" cx="6.333" cy="6.333" r="6.333" transform="translate(12.9 12.667)"/></g><g transform="translate(508 369)"><path class="d" d="M19,38A19,19,0,0,1,5.565,5.565a19,19,0,1,1,26.87,26.87A18.876,18.876,0,0,1,19,38ZM19,6.333A12.667,12.667,0,1,0,31.667,19,12.681,12.681,0,0,0,19,6.333Z"/><circle class="d" cx="6.333" cy="6.333" r="6.333" transform="translate(12.9 12.667)"/></g><g transform="translate(470 62)"><path class="d" d="M19,38A19,19,0,0,1,5.565,5.565a19,19,0,1,1,26.87,26.87A18.876,18.876,0,0,1,19,38ZM19,6.333A12.667,12.667,0,1,0,31.667,19,12.681,12.681,0,0,0,19,6.333Z"/><circle class="d" cx="6.333" cy="6.333" r="6.333" transform="translate(12.9 12.667)"/></g><g transform="translate(470 185)"><path class="d" d="M19,38A19,19,0,0,1,5.565,5.565a19,19,0,1,1,26.87,26.87A18.876,18.876,0,0,1,19,38ZM19,6.333A12.667,12.667,0,1,0,31.667,19,12.681,12.681,0,0,0,19,6.333Z"/><circle class="d" cx="6.333" cy="6.333" r="6.333" transform="translate(12.9 12.667)"/></g><g transform="translate(470 308)"><path class="d" d="M19,38A19,19,0,0,1,5.565,5.565a19,19,0,1,1,26.87,26.87A18.876,18.876,0,0,1,19,38ZM19,6.333A12.667,12.667,0,1,0,31.667,19,12.681,12.681,0,0,0,19,6.333Z"/><circle class="d" cx="6.333" cy="6.333" r="6.333" transform="translate(12.9 12.667)"/></g><g transform="translate(470 432)"><path class="d" d="M19,38A19,19,0,0,1,5.565,5.565a19,19,0,1,1,26.87,26.87A18.876,18.876,0,0,1,19,38ZM19,6.333A12.667,12.667,0,1,0,31.667,19,12.681,12.681,0,0,0,19,6.333Z"/><circle class="d" cx="6.333" cy="6.333" r="6.333" transform="translate(12.9 12.667)"/></g><g transform="translate(977)"><path class="d" d="M19,38A19,19,0,0,1,5.565,5.565a19,19,0,1,1,26.87,26.87A18.876,18.876,0,0,1,19,38ZM19,6.333A12.667,12.667,0,1,0,31.667,19,12.681,12.681,0,0,0,19,6.333Z"/><circle class="d" cx="6.333" cy="6.333" r="6.333" transform="translate(12.9 12.667)"/></g><g transform="translate(977 123)"><path class="d" d="M19,38A19,19,0,0,1,5.565,5.565a19,19,0,1,1,26.87,26.87A18.876,18.876,0,0,1,19,38ZM19,6.333A12.667,12.667,0,1,0,31.667,19,12.681,12.681,0,0,0,19,6.333Z"/><circle class="d" cx="6.333" cy="6.333" r="6.333" transform="translate(12.9 12.667)"/></g><g transform="translate(977 246)"><path class="d" d="M19,38A19,19,0,0,1,5.565,5.565a19,19,0,1,1,26.87,26.87A18.876,18.876,0,0,1,19,38ZM19,6.333A12.667,12.667,0,1,0,31.667,19,12.681,12.681,0,0,0,19,6.333Z"/><circle class="d" cx="6.333" cy="6.333" r="6.333" transform="translate(12.9 12.667)"/></g><g transform="translate(1056 246)"><path class="d" d="M19,38A19,19,0,0,1,5.565,5.565a19,19,0,1,1,26.87,26.87A18.876,18.876,0,0,1,19,38ZM19,6.333A12.667,12.667,0,1,0,31.667,19,12.681,12.681,0,0,0,19,6.333Z"/><circle class="d" cx="6.333" cy="6.333" r="6.333" transform="translate(12.9 12.667)"/></g><g transform="translate(1056 123)"><path class="d" d="M19,38A19,19,0,0,1,5.565,5.565a19,19,0,1,1,26.87,26.87A18.876,18.876,0,0,1,19,38ZM19,6.333A12.667,12.667,0,1,0,31.667,19,12.681,12.681,0,0,0,19,6.333Z"/><circle class="d" cx="6.333" cy="6.333" r="6.333" transform="translate(12.9 12.667)"/></g><g transform="translate(1056 369)"><path class="d" d="M19,38A19,19,0,0,1,5.565,5.565a19,19,0,1,1,26.87,26.87A18.876,18.876,0,0,1,19,38ZM19,6.333A12.667,12.667,0,1,0,31.667,19,12.681,12.681,0,0,0,19,6.333Z"/><circle class="d" cx="6.333" cy="6.333" r="6.333" transform="translate(12.9 12.667)"/></g><g transform="translate(977 369)"><path class="d" d="M19,38A19,19,0,0,1,5.565,5.565a19,19,0,1,1,26.87,26.87A18.876,18.876,0,0,1,19,38ZM19,6.333A12.667,12.667,0,1,0,31.667,19,12.681,12.681,0,0,0,19,6.333Z"/><circle class="d" cx="6.333" cy="6.333" r="6.333" transform="translate(12.9 12.667)"/></g><g transform="translate(939 62)"><path class="d" d="M19,38A19,19,0,0,1,5.565,5.565a19,19,0,1,1,26.87,26.87A18.876,18.876,0,0,1,19,38ZM19,6.333A12.667,12.667,0,1,0,31.667,19,12.681,12.681,0,0,0,19,6.333Z"/><circle class="d" cx="6.333" cy="6.333" r="6.333" transform="translate(12.9 12.667)"/></g><g transform="translate(939 185)"><path class="d" d="M19,38A19,19,0,0,1,5.565,5.565a19,19,0,1,1,26.87,26.87A18.876,18.876,0,0,1,19,38ZM19,6.333A12.667,12.667,0,1,0,31.667,19,12.681,12.681,0,0,0,19,6.333Z"/><circle class="d" cx="6.333" cy="6.333" r="6.333" transform="translate(12.9 12.667)"/></g><g transform="translate(939 308)"><path class="d" d="M19,38A19,19,0,0,1,5.565,5.565a19,19,0,1,1,26.87,26.87A18.876,18.876,0,0,1,19,38ZM19,6.333A12.667,12.667,0,1,0,31.667,19,12.681,12.681,0,0,0,19,6.333Z"/><circle class="d" cx="6.333" cy="6.333" r="6.333" transform="translate(12.9 12.667)"/></g><g transform="translate(939 432)"><path class="d" d="M19,38A19,19,0,0,1,5.565,5.565a19,19,0,1,1,26.87,26.87A18.876,18.876,0,0,1,19,38ZM19,6.333A12.667,12.667,0,1,0,31.667,19,12.681,12.681,0,0,0,19,6.333Z"/><circle class="d" cx="6.333" cy="6.333" r="6.333" transform="translate(12.9 12.667)"/></g><g transform="translate(115)"><path class="d" d="M19,38A19,19,0,0,1,5.565,5.565a19,19,0,1,1,26.87,26.87A18.876,18.876,0,0,1,19,38ZM19,6.333A12.667,12.667,0,1,0,31.667,19,12.681,12.681,0,0,0,19,6.333Z"/><circle class="d" cx="6.333" cy="6.333" r="6.333" transform="translate(12.9 12.667)"/></g><g transform="translate(115 123)"><path class="d" d="M19,38A19,19,0,0,1,5.565,5.565a19,19,0,1,1,26.87,26.87A18.876,18.876,0,0,1,19,38ZM19,6.333A12.667,12.667,0,1,0,31.667,19,12.681,12.681,0,0,0,19,6.333Z"/><circle class="d" cx="6.333" cy="6.333" r="6.333" transform="translate(12.9 12.667)"/></g><g transform="translate(115 246)"><path class="d" d="M19,38A19,19,0,0,1,5.565,5.565a19,19,0,1,1,26.87,26.87A18.876,18.876,0,0,1,19,38ZM19,6.333A12.667,12.667,0,1,0,31.667,19,12.681,12.681,0,0,0,19,6.333Z"/><circle class="d" cx="6.333" cy="6.333" r="6.333" transform="translate(12.9 12.667)"/></g><g transform="translate(115 369)"><path class="d" d="M19,38A19,19,0,0,1,5.565,5.565a19,19,0,1,1,26.87,26.87A18.876,18.876,0,0,1,19,38ZM19,6.333A12.667,12.667,0,1,0,31.667,19,12.681,12.681,0,0,0,19,6.333Z"/><circle class="d" cx="6.333" cy="6.333" r="6.333" transform="translate(12.9 12.667)"/></g><g transform="translate(78 62)"><path class="d" d="M19,38A19,19,0,0,1,5.565,5.565a19,19,0,1,1,26.87,26.87A18.876,18.876,0,0,1,19,38ZM19,6.333A12.667,12.667,0,1,0,31.667,19,12.681,12.681,0,0,0,19,6.333Z"/><circle class="d" cx="6.333" cy="6.333" r="6.333" transform="translate(12.9 12.667)"/></g><g transform="translate(78 185)"><path class="d" d="M19,38A19,19,0,0,1,5.565,5.565a19,19,0,1,1,26.87,26.87A18.876,18.876,0,0,1,19,38ZM19,6.333A12.667,12.667,0,1,0,31.667,19,12.681,12.681,0,0,0,19,6.333Z"/><circle class="d" cx="6.333" cy="6.333" r="6.333" transform="translate(12.9 12.667)"/></g><g transform="translate(78 308)"><path class="d" d="M19,38A19,19,0,0,1,5.565,5.565a19,19,0,1,1,26.87,26.87A18.876,18.876,0,0,1,19,38ZM19,6.333A12.667,12.667,0,1,0,31.667,19,12.681,12.681,0,0,0,19,6.333Z"/><circle class="d" cx="6.333" cy="6.333" r="6.333" transform="translate(12.9 12.667)"/></g><g transform="translate(78 432)"><path class="d" d="M19,38A19,19,0,0,1,5.565,5.565a19,19,0,1,1,26.87,26.87A18.876,18.876,0,0,1,19,38ZM19,6.333A12.667,12.667,0,1,0,31.667,19,12.681,12.681,0,0,0,19,6.333Z"/><circle class="d" cx="6.333" cy="6.333" r="6.333" transform="translate(12.9 12.667)"/></g><g transform="translate(429)"><path class="d" d="M19,38A19,19,0,0,1,5.565,5.565a19,19,0,1,1,26.87,26.87A18.876,18.876,0,0,1,19,38ZM19,6.333A12.667,12.667,0,1,0,31.667,19,12.681,12.681,0,0,0,19,6.333Z"/><circle class="d" cx="6.333" cy="6.333" r="6.333" transform="translate(12.9 12.667)"/></g><g transform="translate(429 123)"><path class="d" d="M19,38A19,19,0,0,1,5.565,5.565a19,19,0,1,1,26.87,26.87A18.876,18.876,0,0,1,19,38ZM19,6.333A12.667,12.667,0,1,0,31.667,19,12.681,12.681,0,0,0,19,6.333Z"/><circle class="d" cx="6.333" cy="6.333" r="6.333" transform="translate(12.9 12.667)"/></g><g transform="translate(429 246)"><path class="d" d="M19,38A19,19,0,0,1,5.565,5.565a19,19,0,1,1,26.87,26.87A18.876,18.876,0,0,1,19,38ZM19,6.333A12.667,12.667,0,1,0,31.667,19,12.681,12.681,0,0,0,19,6.333Z"/><circle class="d" cx="6.333" cy="6.333" r="6.333" transform="translate(12.9 12.667)"/></g><g transform="translate(429 369)"><path class="d" d="M19,38A19,19,0,0,1,5.565,5.565a19,19,0,1,1,26.87,26.87A18.876,18.876,0,0,1,19,38ZM19,6.333A12.667,12.667,0,1,0,31.667,19,12.681,12.681,0,0,0,19,6.333Z"/><circle class="d" cx="6.333" cy="6.333" r="6.333" transform="translate(12.9 12.667)"/></g><g transform="translate(391 62)"><path class="d" d="M19,38A19,19,0,0,1,5.565,5.565a19,19,0,1,1,26.87,26.87A18.876,18.876,0,0,1,19,38ZM19,6.333A12.667,12.667,0,1,0,31.667,19,12.681,12.681,0,0,0,19,6.333Z"/><circle class="d" cx="6.333" cy="6.333" r="6.333" transform="translate(12.9 12.667)"/></g><g transform="translate(391 185)"><path class="d" d="M19,38A19,19,0,0,1,5.565,5.565a19,19,0,1,1,26.87,26.87A18.876,18.876,0,0,1,19,38ZM19,6.333A12.667,12.667,0,1,0,31.667,19,12.681,12.681,0,0,0,19,6.333Z"/><circle class="d" cx="6.333" cy="6.333" r="6.333" transform="translate(12.9 12.667)"/></g><g transform="translate(391 308)"><path class="d" d="M19,38A19,19,0,0,1,5.565,5.565a19,19,0,1,1,26.87,26.87A18.876,18.876,0,0,1,19,38ZM19,6.333A12.667,12.667,0,1,0,31.667,19,12.681,12.681,0,0,0,19,6.333Z"/><circle class="d" cx="6.333" cy="6.333" r="6.333" transform="translate(12.9 12.667)"/></g><g transform="translate(391 432)"><path class="d" d="M19,38A19,19,0,0,1,5.565,5.565a19,19,0,1,1,26.87,26.87A18.876,18.876,0,0,1,19,38ZM19,6.333A12.667,12.667,0,1,0,31.667,19,12.681,12.681,0,0,0,19,6.333Z"/><circle class="d" cx="6.333" cy="6.333" r="6.333" transform="translate(12.9 12.667)"/></g><g transform="translate(898)"><path class="d" d="M19,38A19,19,0,0,1,5.565,5.565a19,19,0,1,1,26.87,26.87A18.876,18.876,0,0,1,19,38ZM19,6.333A12.667,12.667,0,1,0,31.667,19,12.681,12.681,0,0,0,19,6.333Z"/><circle class="d" cx="6.333" cy="6.333" r="6.333" transform="translate(12.9 12.667)"/></g><g transform="translate(898 123)"><path class="d" d="M19,38A19,19,0,0,1,5.565,5.565a19,19,0,1,1,26.87,26.87A18.876,18.876,0,0,1,19,38ZM19,6.333A12.667,12.667,0,1,0,31.667,19,12.681,12.681,0,0,0,19,6.333Z"/><circle class="d" cx="6.333" cy="6.333" r="6.333" transform="translate(12.9 12.667)"/></g><g transform="translate(898 246)"><path class="d" d="M19,38A19,19,0,0,1,5.565,5.565a19,19,0,1,1,26.87,26.87A18.876,18.876,0,0,1,19,38ZM19,6.333A12.667,12.667,0,1,0,31.667,19,12.681,12.681,0,0,0,19,6.333Z"/><circle class="d" cx="6.333" cy="6.333" r="6.333" transform="translate(12.9 12.667)"/></g><g transform="translate(898 369)"><path class="d" d="M19,38A19,19,0,0,1,5.565,5.565a19,19,0,1,1,26.87,26.87A18.876,18.876,0,0,1,19,38ZM19,6.333A12.667,12.667,0,1,0,31.667,19,12.681,12.681,0,0,0,19,6.333Z"/><circle class="d" cx="6.333" cy="6.333" r="6.333" transform="translate(12.9 12.667)"/></g><g transform="translate(860 62)"><path class="d" d="M19,38A19,19,0,0,1,5.565,5.565a19,19,0,1,1,26.87,26.87A18.876,18.876,0,0,1,19,38ZM19,6.333A12.667,12.667,0,1,0,31.667,19,12.681,12.681,0,0,0,19,6.333Z"/><circle class="d" cx="6.333" cy="6.333" r="6.333" transform="translate(12.9 12.667)"/></g><g transform="translate(860 185)"><path class="d" d="M19,38A19,19,0,0,1,5.565,5.565a19,19,0,1,1,26.87,26.87A18.876,18.876,0,0,1,19,38ZM19,6.333A12.667,12.667,0,1,0,31.667,19,12.681,12.681,0,0,0,19,6.333Z"/><circle class="d" cx="6.333" cy="6.333" r="6.333" transform="translate(12.9 12.667)"/></g><g transform="translate(860 308)"><path class="d" d="M19,38A19,19,0,0,1,5.565,5.565a19,19,0,1,1,26.87,26.87A18.876,18.876,0,0,1,19,38ZM19,6.333A12.667,12.667,0,1,0,31.667,19,12.681,12.681,0,0,0,19,6.333Z"/><circle class="d" cx="6.333" cy="6.333" r="6.333" transform="translate(12.9 12.667)"/></g><g transform="translate(860 432)"><path class="d" d="M19,38A19,19,0,0,1,5.565,5.565a19,19,0,1,1,26.87,26.87A18.876,18.876,0,0,1,19,38ZM19,6.333A12.667,12.667,0,1,0,31.667,19,12.681,12.681,0,0,0,19,6.333Z"/><circle class="d" cx="6.333" cy="6.333" r="6.333" transform="translate(12.9 12.667)"/></g><g transform="translate(273)"><path class="d" d="M19,38A19,19,0,0,1,5.565,5.565a19,19,0,1,1,26.87,26.87A18.876,18.876,0,0,1,19,38ZM19,6.333A12.667,12.667,0,1,0,31.667,19,12.681,12.681,0,0,0,19,6.333Z"/><circle class="d" cx="6.333" cy="6.333" r="6.333" transform="translate(12.9 12.667)"/></g><g transform="translate(273 123)"><path class="d" d="M19,38A19,19,0,0,1,5.565,5.565a19,19,0,1,1,26.87,26.87A18.876,18.876,0,0,1,19,38ZM19,6.333A12.667,12.667,0,1,0,31.667,19,12.681,12.681,0,0,0,19,6.333Z"/><circle class="d" cx="6.333" cy="6.333" r="6.333" transform="translate(12.9 12.667)"/></g><g transform="translate(273 246)"><path class="d" d="M19,38A19,19,0,0,1,5.565,5.565a19,19,0,1,1,26.87,26.87A18.876,18.876,0,0,1,19,38ZM19,6.333A12.667,12.667,0,1,0,31.667,19,12.681,12.681,0,0,0,19,6.333Z"/><circle class="d" cx="6.333" cy="6.333" r="6.333" transform="translate(12.9 12.667)"/></g><g transform="translate(273 369)"><path class="d" d="M19,38A19,19,0,0,1,5.565,5.565a19,19,0,1,1,26.87,26.87A18.876,18.876,0,0,1,19,38ZM19,6.333A12.667,12.667,0,1,0,31.667,19,12.681,12.681,0,0,0,19,6.333Z"/><circle class="d" cx="6.333" cy="6.333" r="6.333" transform="translate(12.9 12.667)"/></g><g transform="translate(235 62)"><path class="d" d="M19,38A19,19,0,0,1,5.565,5.565a19,19,0,1,1,26.87,26.87A18.876,18.876,0,0,1,19,38ZM19,6.333A12.667,12.667,0,1,0,31.667,19,12.681,12.681,0,0,0,19,6.333Z"/><circle class="d" cx="6.333" cy="6.333" r="6.333" transform="translate(12.9 12.667)"/></g><g transform="translate(235 185)"><path class="d" d="M19,38A19,19,0,0,1,5.565,5.565a19,19,0,1,1,26.87,26.87A18.876,18.876,0,0,1,19,38ZM19,6.333A12.667,12.667,0,1,0,31.667,19,12.681,12.681,0,0,0,19,6.333Z"/><circle class="d" cx="6.333" cy="6.333" r="6.333" transform="translate(12.9 12.667)"/></g><g transform="translate(235 308)"><path class="d" d="M19,38A19,19,0,0,1,5.565,5.565a19,19,0,1,1,26.87,26.87A18.876,18.876,0,0,1,19,38ZM19,6.333A12.667,12.667,0,1,0,31.667,19,12.681,12.681,0,0,0,19,6.333Z"/><circle class="d" cx="6.333" cy="6.333" r="6.333" transform="translate(12.9 12.667)"/></g><g transform="translate(235 432)"><path class="d" d="M19,38A19,19,0,0,1,5.565,5.565a19,19,0,1,1,26.87,26.87A18.876,18.876,0,0,1,19,38ZM19,6.333A12.667,12.667,0,1,0,31.667,19,12.681,12.681,0,0,0,19,6.333Z"/><circle class="d" cx="6.333" cy="6.333" r="6.333" transform="translate(12.9 12.667)"/></g><g transform="translate(741)"><path class="d" d="M19,38A19,19,0,0,1,5.565,5.565a19,19,0,1,1,26.87,26.87A18.876,18.876,0,0,1,19,38ZM19,6.333A12.667,12.667,0,1,0,31.667,19,12.681,12.681,0,0,0,19,6.333Z"/><circle class="d" cx="6.333" cy="6.333" r="6.333" transform="translate(12.9 12.667)"/></g><g transform="translate(741 123)"><path class="d" d="M19,38A19,19,0,0,1,5.565,5.565a19,19,0,1,1,26.87,26.87A18.876,18.876,0,0,1,19,38ZM19,6.333A12.667,12.667,0,1,0,31.667,19,12.681,12.681,0,0,0,19,6.333Z"/><circle class="d" cx="6.333" cy="6.333" r="6.333" transform="translate(12.9 12.667)"/></g><g transform="translate(741 246)"><path class="d" d="M19,38A19,19,0,0,1,5.565,5.565a19,19,0,1,1,26.87,26.87A18.876,18.876,0,0,1,19,38ZM19,6.333A12.667,12.667,0,1,0,31.667,19,12.681,12.681,0,0,0,19,6.333Z"/><circle class="d" cx="6.333" cy="6.333" r="6.333" transform="translate(12.9 12.667)"/></g><g transform="translate(741 369)"><path class="d" d="M19,38A19,19,0,0,1,5.565,5.565a19,19,0,1,1,26.87,26.87A18.876,18.876,0,0,1,19,38ZM19,6.333A12.667,12.667,0,1,0,31.667,19,12.681,12.681,0,0,0,19,6.333Z"/><circle class="d" cx="6.333" cy="6.333" r="6.333" transform="translate(12.9 12.667)"/></g><g transform="translate(704 62)"><path class="d" d="M19,38A19,19,0,0,1,5.565,5.565a19,19,0,1,1,26.87,26.87A18.876,18.876,0,0,1,19,38ZM19,6.333A12.667,12.667,0,1,0,31.667,19,12.681,12.681,0,0,0,19,6.333Z"/><circle class="d" cx="6.333" cy="6.333" r="6.333" transform="translate(12.9 12.667)"/></g><g transform="translate(704 185)"><path class="d" d="M19,38A19,19,0,0,1,5.565,5.565a19,19,0,1,1,26.87,26.87A18.876,18.876,0,0,1,19,38ZM19,6.333A12.667,12.667,0,1,0,31.667,19,12.681,12.681,0,0,0,19,6.333Z"/><circle class="d" cx="6.333" cy="6.333" r="6.333" transform="translate(12.9 12.667)"/></g><g transform="translate(704 308)"><path class="d" d="M19,38A19,19,0,0,1,5.565,5.565a19,19,0,1,1,26.87,26.87A18.876,18.876,0,0,1,19,38ZM19,6.333A12.667,12.667,0,1,0,31.667,19,12.681,12.681,0,0,0,19,6.333Z"/><circle class="d" cx="6.333" cy="6.333" r="6.333" transform="translate(12.9 12.667)"/></g><g transform="translate(704 432)"><path class="d" d="M19,38A19,19,0,0,1,5.565,5.565a19,19,0,1,1,26.87,26.87A18.876,18.876,0,0,1,19,38ZM19,6.333A12.667,12.667,0,1,0,31.667,19,12.681,12.681,0,0,0,19,6.333Z"/><circle class="d" cx="6.333" cy="6.333" r="6.333" transform="translate(12.9 12.667)"/></g><g transform="translate(585)"><path class="d" d="M19,38A19,19,0,0,1,5.565,5.565a19,19,0,1,1,26.87,26.87A18.876,18.876,0,0,1,19,38ZM19,6.333A12.667,12.667,0,1,0,31.667,19,12.681,12.681,0,0,0,19,6.333Z"/><circle class="d" cx="6.333" cy="6.333" r="6.333" transform="translate(12.9 12.667)"/></g><g transform="translate(585 123)"><path class="d" d="M19,38A19,19,0,0,1,5.565,5.565a19,19,0,1,1,26.87,26.87A18.876,18.876,0,0,1,19,38ZM19,6.333A12.667,12.667,0,1,0,31.667,19,12.681,12.681,0,0,0,19,6.333Z"/><circle class="d" cx="6.333" cy="6.333" r="6.333" transform="translate(12.9 12.667)"/></g><g transform="translate(585 246)"><path class="d" d="M19,38A19,19,0,0,1,5.565,5.565a19,19,0,1,1,26.87,26.87A18.876,18.876,0,0,1,19,38ZM19,6.333A12.667,12.667,0,1,0,31.667,19,12.681,12.681,0,0,0,19,6.333Z"/><circle class="d" cx="6.333" cy="6.333" r="6.333" transform="translate(12.9 12.667)"/></g><g transform="translate(585 369)"><path class="d" d="M19,38A19,19,0,0,1,5.565,5.565a19,19,0,1,1,26.87,26.87A18.876,18.876,0,0,1,19,38ZM19,6.333A12.667,12.667,0,1,0,31.667,19,12.681,12.681,0,0,0,19,6.333Z"/><circle class="d" cx="6.333" cy="6.333" r="6.333" transform="translate(12.9 12.667)"/></g><g transform="translate(548 62)"><path class="d" d="M19,38A19,19,0,0,1,5.565,5.565a19,19,0,1,1,26.87,26.87A18.876,18.876,0,0,1,19,38ZM19,6.333A12.667,12.667,0,1,0,31.667,19,12.681,12.681,0,0,0,19,6.333Z"/><circle class="d" cx="6.333" cy="6.333" r="6.333" transform="translate(12.9 12.667)"/></g><g transform="translate(548 185)"><path class="d" d="M19,38A19,19,0,0,1,5.565,5.565a19,19,0,1,1,26.87,26.87A18.876,18.876,0,0,1,19,38ZM19,6.333A12.667,12.667,0,1,0,31.667,19,12.681,12.681,0,0,0,19,6.333Z"/><circle class="d" cx="6.333" cy="6.333" r="6.333" transform="translate(12.9 12.667)"/></g><g transform="translate(548 308)"><path class="d" d="M19,38A19,19,0,0,1,5.565,5.565a19,19,0,1,1,26.87,26.87A18.876,18.876,0,0,1,19,38ZM19,6.333A12.667,12.667,0,1,0,31.667,19,12.681,12.681,0,0,0,19,6.333Z"/><circle class="d" cx="6.333" cy="6.333" r="6.333" transform="translate(12.9 12.667)"/></g><g transform="translate(548 432)"><path class="d" d="M19,38A19,19,0,0,1,5.565,5.565a19,19,0,1,1,26.87,26.87A18.876,18.876,0,0,1,19,38ZM19,6.333A12.667,12.667,0,1,0,31.667,19,12.681,12.681,0,0,0,19,6.333Z"/><circle class="d" cx="6.333" cy="6.333" r="6.333" transform="translate(12.9 12.667)"/></g><g transform="translate(1055)"><path class="d" d="M19,38A19,19,0,0,1,5.565,5.565a19,19,0,1,1,26.87,26.87A18.876,18.876,0,0,1,19,38ZM19,6.333A12.667,12.667,0,1,0,31.667,19,12.681,12.681,0,0,0,19,6.333Z"/><circle class="d" cx="6.333" cy="6.333" r="6.333" transform="translate(12.9 12.667)"/></g><g transform="translate(1017 62)"><path class="d" d="M19,38A19,19,0,0,1,5.565,5.565a19,19,0,1,1,26.87,26.87A18.876,18.876,0,0,1,19,38ZM19,6.333A12.667,12.667,0,1,0,31.667,19,12.681,12.681,0,0,0,19,6.333Z"/><circle class="d" cx="6.333" cy="6.333" r="6.333" transform="translate(12.9 12.667)"/></g><g transform="translate(1017 185)"><path class="d" d="M19,38A19,19,0,0,1,5.565,5.565a19,19,0,1,1,26.87,26.87A18.876,18.876,0,0,1,19,38ZM19,6.333A12.667,12.667,0,1,0,31.667,19,12.681,12.681,0,0,0,19,6.333Z"/><circle class="d" cx="6.333" cy="6.333" r="6.333" transform="translate(12.9 12.667)"/></g><g transform="translate(1017 308)"><path class="d" d="M19,38A19,19,0,0,1,5.565,5.565a19,19,0,1,1,26.87,26.87A18.876,18.876,0,0,1,19,38ZM19,6.333A12.667,12.667,0,1,0,31.667,19,12.681,12.681,0,0,0,19,6.333Z"/><circle class="d" cx="6.333" cy="6.333" r="6.333" transform="translate(12.9 12.667)"/></g><g transform="translate(1017 432)"><path class="d" d="M19,38A19,19,0,0,1,5.565,5.565a19,19,0,1,1,26.87,26.87A18.876,18.876,0,0,1,19,38ZM19,6.333A12.667,12.667,0,1,0,31.667,19,12.681,12.681,0,0,0,19,6.333Z"/><circle class="d" cx="6.333" cy="6.333" r="6.333" transform="translate(12.9 12.667)"/></g></g></g></svg>